<svg width="86" height="74" viewBox="0 0 86 74" fill="none" xmlns="http://www.w3.org/2000/svg">
<g clip-path="url(#clip0_2003_4686)">
<path d="M73.9116 24.5029C65.6708 7.82926 39.4606 14.1459 44.3042 27.9454C44.9208 29.6977 45.4247 31.3465 45.8338 32.9005C49.4087 30.6449 56.1199 27.6376 60.1958 33.4895C67.3249 43.7281 49.5629 57.1251 44.6422 60.5528C45.0394 62.0061 46.1688 63.4151 48.561 65.0609C54.4569 69.1249 64.4496 64.1906 68.5492 56.4857C74.3592 45.5693 78.7048 34.1999 73.9116 24.5029Z" fill="#FCFEFF"/>
<path d="M26.6402 33.4897C31.051 27.1553 38.5507 31.1986 41.8173 33.4364C43.6078 20.5249 18.6692 16.7716 11.7446 33.315C7.56793 43.2932 12.6161 54.3695 19.0961 64.9042C23.67 72.3397 33.9531 76.6406 39.5823 72.2154C45.2026 67.799 43.3143 65.3156 41.3727 59.9758C35.5746 55.8081 19.8638 43.2192 26.6402 33.4897Z" fill="#FFD44D"/>
<path d="M57.4536 6.62277C57.5193 3.02048 55.1576 0.0563436 52.1786 0.00219368C49.1996 -0.0519562 46.7315 2.82438 46.6658 6.42668C46.6001 10.029 48.9618 12.9931 51.9408 13.0473C54.9198 13.1014 57.388 10.2251 57.4536 6.62277Z" fill="#FCFEFF"/>
<path d="M59.3955 6.06542C58.4973 9.1083 59.8105 12.1749 62.3272 12.9149C64.8439 13.6549 67.6125 11.7901 68.5107 8.74422C69.4089 5.69838 68.0957 2.63478 65.579 1.89478C63.0594 1.15774 60.2907 3.02254 59.3955 6.06542Z" fill="#FCFEFF"/>
<path d="M69.7142 10.2891C68.2943 12.7666 68.8071 15.7237 70.8584 16.8929C72.9097 18.0621 75.7199 17.0024 77.1368 14.5249C78.5537 12.0473 78.0439 9.0903 75.9926 7.9211C73.9443 6.7519 71.1341 7.81158 69.7142 10.2891Z" fill="#FCFEFF"/>
<path d="M76.698 18.4944C75.0114 20.4332 74.9461 23.1357 76.5528 24.5239C78.1565 25.9151 80.8243 25.4681 82.511 23.5293C84.1977 21.5905 84.2629 18.891 82.6563 17.4998C81.0526 16.1086 78.3847 16.5526 76.698 18.4944Z" fill="#FCFEFF"/>
<path d="M84.6233 32.9725C86.2872 31.2429 86.476 28.728 85.045 27.3554C83.614 25.9827 81.1051 26.272 79.4412 28.0016C77.7773 29.7312 77.5885 32.2461 79.0195 33.6187C80.4505 34.9914 82.9595 34.7021 84.6233 32.9725Z" fill="#FCFEFF"/>
<path d="M75.2516 28.0581C74.4897 43.5182 63.9813 64.2589 46.4031 63.3235C46.9693 63.88 47.6777 64.4543 48.5611 65.064C54.4571 69.1281 64.4497 64.1938 68.5493 56.4889C73.6657 46.8778 77.6408 36.9203 75.2516 28.0581Z" fill="#75B8EA"/>
<path d="M32.9509 20.5074C35.9206 20.2676 38.0923 17.162 37.8015 13.5709C37.5107 9.97978 34.8675 7.263 31.8977 7.5028C28.928 7.74261 26.7563 10.8482 27.0471 14.4393C27.3379 18.0304 29.9811 20.7472 32.9509 20.5074Z" fill="#FFD44D"/>
<path d="M22.5829 21.0271C25.049 20.1312 26.1674 16.9877 25.081 14.0059C23.9945 11.0242 21.1147 9.33333 18.6486 10.2293C16.1825 11.1252 15.0641 14.2687 16.1505 17.2505C17.237 20.2322 20.1169 21.9231 22.5829 21.0271Z" fill="#FFD44D"/>
<path d="M15.0439 18.8645C16.615 21.2502 16.2889 24.2309 14.3147 25.5274C12.3435 26.8239 9.47106 25.9389 7.89998 23.5561C6.32891 21.1703 6.65498 18.1896 8.6292 16.8931C10.6005 15.5966 13.4729 16.4817 15.0439 18.8645Z" fill="#FFD44D"/>
<path d="M8.58762 27.4865C10.3899 29.3187 10.6271 32.0094 9.10934 33.4953C7.59458 34.9842 4.90301 34.7059 3.10072 32.8737C1.29547 31.0415 1.06129 28.3508 2.57604 26.8649C4.09376 25.379 6.78533 25.6572 8.58762 27.4865Z" fill="#FFD44D"/>
<path d="M7.21988 42.7289C8.5622 41.2699 8.21663 38.7719 6.44803 37.1495C4.67944 35.5271 2.15756 35.3947 0.815241 36.8538C-0.527073 38.3128 -0.181509 40.8108 1.58708 42.4332C3.35568 44.0556 5.87757 44.188 7.21988 42.7289Z" fill="#FFD44D"/>
<path d="M32.1271 65.4842C26.2282 65.052 20.6583 61.9056 16.9381 57.3176C14.1042 53.8218 12.3167 49.592 10.9947 45.2911C10.7338 44.4416 10.4907 43.5802 10.2803 42.71C10.7842 50.0034 14.5933 57.584 19.0961 64.904C23.67 72.3396 33.9531 76.6404 39.5823 72.2152C43.925 68.8024 43.7857 66.5468 42.6029 63.2346C39.4252 64.9455 35.7346 65.7476 32.1271 65.4842Z" fill="#F7467B"/>
<path d="M53.5084 38.3943C50.0461 33.4244 43.4209 39.081 43.4209 39.081C43.4209 39.081 36.7928 33.4215 33.3334 38.3943C28.3771 45.5101 43.4209 55.1656 43.4209 55.1656C43.4209 55.1656 58.4617 45.5101 53.5084 38.3943Z" fill="#FFBE00"/>
</g>
<defs>
<clipPath id="clip0_2003_4686">
<rect width="86" height="74" fill="white"/>
</clipPath>
</defs>
</svg>
